<?xml version="1.0" encoding="iso-8859-1"?>
<!-- Generator: Adobe Illustrator 16.0.0, SVG Export Plug-In . SVG Version: 6.00 Build 0)  -->
<!DOCTYPE svg PUBLIC "-//W3C//DTD SVG 1.1//EN" "http://www.w3.org/Graphics/SVG/1.1/DTD/svg11.dtd">
<svg version="1.1" id="Capa_1" xmlns="http://www.w3.org/2000/svg" xmlns:xlink="http://www.w3.org/1999/xlink" x="0px" y="0px"
	 width="312.577px" height="312.577px" viewBox="0 0 312.577 312.577" style="enable-background:new 0 0 312.577 312.577;"
	 xml:space="preserve">
<g>
	<path d="M58.857,74.279c4.28,3.426,9.608,5.598,15.478,5.714l5.222-2.125l5.022-2.045l3.695-1.507
		c14.263,0,20.086-5.823,20.086-20.081V40.826c0-14.263-5.823-20.086-20.086-20.086l-1.033-0.212l-2.662-1.129l-4.567-1.937
		l-5.672-2.4c-6.118,0.122-11.638,2.476-16.003,6.159c-1.17,0.992-2.242,2.069-3.218,3.252c-0.81,0.977-1.569,1.983-2.227,3.073
		c-2.358,3.889-3.785,8.407-3.785,13.279v13.409c0,5.027,1.494,9.693,3.992,13.665c0.694,1.103,1.504,2.115,2.354,3.102
		C56.48,72.201,57.617,73.288,58.857,74.279z"/>
	<path d="M299.989,9.625c-6.949,0-12.599,5.649-12.599,12.598v4.741v2.695v2.688l-21.06-3.653c1.585,3.728,2.465,7.826,2.465,12.127
		V54.23c0,4.453-0.963,8.681-2.651,12.513l21.246-3.685v2.692v2.69v51.866c0,0.065-0.202,6.649-6.073,16.438
		c-2.134,3.552-1.596,6.49-0.767,8.318c1.071,2.372,3.293,4.228,5.83,5.732c-12.552,26.703-34.502,43.33-51.895,67.113
		c-1.14,1.559-2.217,3.112-3.227,4.671c-14.944-7.928-31.333-14.131-49.213-19.02c-53.495-14.628-109.245-17.911-150.725-57.436
		c0.228-0.354,0.536-0.678,0.704-1.062c0.829-1.833,1.367-4.767-0.769-8.318c-5.864-9.79-6.071-16.374-6.071-16.399V68.441v-2.69
		v-2.692l21.246,3.685c-1.696-3.832-2.651-8.06-2.651-12.513V40.826c0-4.3,0.88-8.398,2.467-12.127l-21.051,3.653V29.66v-2.695
		v-4.741c0-6.949-5.647-12.598-12.599-12.598S0,15.275,0,22.224v98.128c0,13.934,1.686,23.957,5.022,29.782
		c2.941,5.152,6.299,5.546,7.263,5.546l0.494-0.047c0.87-0.16,5.383-1.087,9.898-3.026c31.211,30.637,71.222,42.479,113.69,51.551
		c32.387,6.918,62.715,14.592,89.232,28.304c-10.046,20.236-10.988,40.979-8.451,65.415c0.699,6.736,11.31,6.799,10.605,0
		c-2.486-23.928-0.291-42.394,8.135-59.637c21.349,12.915,39.866,30.541,54.447,56.131c3.387,5.939,12.547,0.602,9.155-5.349
		c-15.255-26.776-34.642-46.226-58.021-60.631c4.51-7.021,10.133-13.976,17.01-21.157c15.462-16.156,28.687-32.467,37.743-52.455
		c1.911,0.508,3.412,0.813,3.956,0.901h0.108c0.964,0,4.324-0.394,7.266-5.546c3.334-5.831,5.022-15.848,5.022-29.782V22.224
		C312.588,15.275,306.938,9.625,299.989,9.625z"/>
	<path d="M225.347,74.528l2.661,1.129l5.163,2.185l5.074,2.152c5.872-0.117,11.2-2.289,15.482-5.714
		c1.238-0.991,2.372-2.079,3.407-3.283c0.85-0.986,1.657-1.994,2.351-3.102c2.502-3.972,3.998-8.637,3.998-13.665V40.826
		c0-4.872-1.43-9.385-3.79-13.279c-0.663-1.09-1.419-2.097-2.227-3.073c-0.979-1.183-2.051-2.26-3.216-3.252
		c-4.365-3.684-9.891-6.037-16.006-6.159l-5.83,2.374l-4.412,1.797l-3.697,1.507c-14.261,0-20.081,5.823-20.081,20.086v13.409
		c0,14.258,5.82,20.081,20.081,20.081L225.347,74.528z"/>
</g>
<g>
</g>
<g>
</g>
<g>
</g>
<g>
</g>
<g>
</g>
<g>
</g>
<g>
</g>
<g>
</g>
<g>
</g>
<g>
</g>
<g>
</g>
<g>
</g>
<g>
</g>
<g>
</g>
<g>
</g>
</svg>
