<?xml version="1.0" encoding="UTF-8" standalone="no"?>
<!-- Created with Inkscape (http://www.inkscape.org/) -->

<svg
   xmlns:dc="http://purl.org/dc/elements/1.1/"
   xmlns:cc="http://creativecommons.org/ns#"
   xmlns:rdf="http://www.w3.org/1999/02/22-rdf-syntax-ns#"
   xmlns:svg="http://www.w3.org/2000/svg"
   xmlns="http://www.w3.org/2000/svg"
   xmlns:xlink="http://www.w3.org/1999/xlink"
   xmlns:sodipodi="http://sodipodi.sourceforge.net/DTD/sodipodi-0.dtd"
   xmlns:inkscape="http://www.inkscape.org/namespaces/inkscape"
   width="225.78323"
   height="259.37924"
   id="svg3098"
   version="1.1"
   inkscape:version="0.48.4 r9939"
   sodipodi:docname="microphone_in_fist.svg">
  <defs
     id="defs3100">
    <linearGradient
       x1="154.67"
       y1="373.07999"
       gradientTransform="matrix(1,0,0,-1,-18,678.03)"
       x2="155.72"
       gradientUnits="userSpaceOnUse"
       y2="415.04999"
       id="linearGradient4091">
      <stop
         offset="0"
         stop-opacity=".082353"
         stop-color="#FFF"
         id="stop9974" />
      <stop
         offset=".48605"
         stop-opacity=".88627"
         stop-color="#FFF"
         id="stop9976" />
      <stop
         offset="1"
         stop-opacity=".082353"
         stop-color="#FFF"
         id="stop9978" />
    </linearGradient>
    <linearGradient
       x1="807.75"
       y1="947.40002"
       gradientTransform="matrix(-1.018,0,0,1.018,919.74,-899.06)"
       x2="837.84003"
       gradientUnits="userSpaceOnUse"
       y2="964.72998"
       id="linearGradient4089">
      <stop
         offset="0"
         stop-color="#5a5a5a"
         id="stop10081" />
      <stop
         offset="1"
         stop-color="#1e1e1e"
         id="stop10083" />
    </linearGradient>
    <linearGradient
       x1="322.98999"
       y1="465.22"
       gradientTransform="matrix(0.21625,-0.12485,-0.12485,-0.21625,129.9,148.39)"
       x2="318.98999"
       gradientUnits="userSpaceOnUse"
       spreadMethod="reflect"
       y2="360.72"
       id="linearGradient4087">
      <stop
         offset="0"
         stop-color="#6d674f"
         id="stop4900" />
      <stop
         offset=".57397"
         stop-color="#BBB"
         id="stop4902-0" />
      <stop
         offset="1"
         stop-color="#6d674f"
         id="stop4904-7" />
    </linearGradient>
    <linearGradient
       x1="314.82999"
       y1="379.72"
       gradientTransform="matrix(0.21625,-0.12485,-0.12485,-0.21625,120.98,154.41)"
       x2="314.82999"
       gradientUnits="userSpaceOnUse"
       spreadMethod="reflect"
       y2="455.22"
       id="linearGradient4085">
      <stop
         offset="0"
         stop-color="#6d674f"
         id="stop4056" />
      <stop
         offset=".69708"
         stop-color="#BBB"
         id="stop4062" />
      <stop
         offset="1"
         stop-color="#6d674f"
         id="stop4058" />
    </linearGradient>
    <radialGradient
       r="60"
       gradientTransform="matrix(0.26645,-0.15383,-0.15383,-0.26645,133.14,169.15)"
       cx="300.67999"
       cy="435.79999"
       gradientUnits="userSpaceOnUse"
       id="radialGradient4083">
      <stop
         offset="0"
         stop-color="#4d4d4d"
         id="stop4824-7" />
      <stop
         offset="1"
         stop-opacity="0"
         stop-color="#4d4d4d"
         id="stop4826-8" />
    </radialGradient>
    <radialGradient
       r="60"
       gradientTransform="matrix(0.26645,-0.15383,-0.15383,-0.26645,133.14,169.15)"
       cx="286.07001"
       cy="357.89001"
       gradientUnits="userSpaceOnUse"
       id="radialGradient4081">
      <stop
         offset="0"
         stop-opacity=".67254"
         stop-color="#f9f9f9"
         id="stop4812" />
      <stop
         offset="1"
         stop-opacity="0"
         stop-color="#f9f9f9"
         id="stop4814" />
    </radialGradient>
    <linearGradient
       x1="1257.6"
       y1="384.48999"
       gradientTransform="matrix(1.018,0,0,1.018,-1252.1,-294.1)"
       x2="1257.6"
       gradientUnits="userSpaceOnUse"
       y2="374.97"
       id="linearGradient4079">
      <stop
         offset="0"
         stop-color="#a0a0a0"
         id="stop10016" />
      <stop
         offset=".15578"
         stop-color="#c4c4c4"
         id="stop10027" />
      <stop
         offset=".31156"
         stop-color="#b8b8b8"
         id="stop10022" />
      <stop
         offset=".94505"
         stop-color="#ebebeb"
         id="stop10025" />
      <stop
         offset="1"
         stop-color="#b6b6b6"
         id="stop10018" />
    </linearGradient>
    <linearGradient
       x1="819.89001"
       y1="998.23999"
       gradientTransform="matrix(-1.018,0,0,1.018,919.49,-899.06)"
       x2="829.44"
       gradientUnits="userSpaceOnUse"
       y2="998.23999"
       id="linearGradient4077">
      <stop
         offset="0"
         stop-color="#cbcbcb"
         id="stop10073" />
      <stop
         offset="1"
         stop-color="#868686"
         id="stop10075" />
    </linearGradient>
    <filter
       color-interpolation-filters="sRGB"
       id="filter10101">
      <feGaussianBlur
         stdDeviation="4.9801895"
         id="feGaussianBlur10103" />
    </filter>
    <filter
       color-interpolation-filters="sRGB"
       id="filter5184">
      <feGaussianBlur
         stdDeviation="2.3536243"
         id="feGaussianBlur5186" />
    </filter>
    <filter
       color-interpolation-filters="sRGB"
       id="filter10006">
      <feGaussianBlur
         stdDeviation="1.2652113"
         id="feGaussianBlur10008" />
    </filter>
    <linearGradient
       inkscape:collect="always"
       xlink:href="#linearGradient4087"
       id="linearGradient3268"
       gradientUnits="userSpaceOnUse"
       gradientTransform="matrix(0.21625,-0.12485,-0.12485,-0.21625,348.05656,605.39225)"
       spreadMethod="reflect"
       x1="322.98999"
       y1="465.22"
       x2="318.98999"
       y2="360.72" />
    <radialGradient
       inkscape:collect="always"
       xlink:href="#radialGradient4083"
       id="radialGradient3276"
       gradientUnits="userSpaceOnUse"
       gradientTransform="matrix(0.26645,-0.15383,-0.15383,-0.26645,351.29656,626.15225)"
       cx="300.67999"
       cy="435.79999"
       r="60" />
    <radialGradient
       inkscape:collect="always"
       xlink:href="#radialGradient4081"
       id="radialGradient3279"
       gradientUnits="userSpaceOnUse"
       gradientTransform="matrix(0.26645,-0.15383,-0.15383,-0.26645,351.29656,626.15225)"
       cx="286.07001"
       cy="357.89001"
       r="60" />
  </defs>
  <sodipodi:namedview
     id="base"
     pagecolor="#ffffff"
     bordercolor="#666666"
     borderopacity="1.0"
     inkscape:pageopacity="0.0"
     inkscape:pageshadow="2"
     inkscape:zoom="1.329337"
     inkscape:cx="109.42553"
     inkscape:cy="93.95309"
     inkscape:document-units="px"
     inkscape:current-layer="layer1"
     showgrid="false"
     inkscape:window-width="1280"
     inkscape:window-height="749"
     inkscape:window-x="0"
     inkscape:window-y="26"
     inkscape:window-maximized="1"
     fit-margin-top="0"
     fit-margin-left="0"
     fit-margin-right="0"
     fit-margin-bottom="0" />
  <metadata
     id="metadata3103">
    <rdf:RDF>
      <cc:Work
         rdf:about="">
        <dc:format>image/svg+xml</dc:format>
        <dc:type
           rdf:resource="http://purl.org/dc/dcmitype/StillImage" />
        <dc:title></dc:title>
      </cc:Work>
    </rdf:RDF>
  </metadata>
  <g
     inkscape:label="Layer 1"
     inkscape:groupmode="layer"
     id="layer1"
     transform="translate(-112.14773,-323.45871)">
    <path
       style="fill:#00ff00;stroke:none;display:none"
       inkscape:connector-curvature="0"
       display="none"
       d="m -51.9274,1211.4308 c 0,0 -19.0836,-0.022 -0.6989,-132.6935 C -34.2417,946.066 -24.045,899.1052 -5.3234,791.0001 1.7346,774.8563 -73.7096,698.777 -134.2387,593.2597 -195.9902,485.6117 -277.9101,357.4473 -322.9681,312.8139 c 0,0 174.6051,-335.4541 237.819,-349.6864 0,0 301.3812,108.86 337.0663,144.5451 0,0 -1.6885,91.6752 -28.6427,104.2204 -26.9543,12.5452 -108.8787,44.596 -154.5442,34.6042 0,0 -66.5129,-72.4035 -90.3392,-83.5027 0,0 -6.2708,4.3005 1.4514,23.8679 7.7223,19.5674 -10.4012,69.4088 -39.2782,89.5321 0,0 -21.8448,3.1385 -20.069,6.7997 1.7759,3.6612 5.1862,8.7151 30.2112,12.0414 25.0249,3.3263 41.4226,16.8926 51.1404,21.7706 9.7179,4.8781 39.9987,16.8593 64.2749,23.7075 0,0 237.1202,313.2578 237.1202,342.053 0,0 -71.9669,66.2099 -101.9054,69.0026 0,0 -4.9395,0.036 0,4.9752 4.9395,4.9394 64.5757,-0.9453 70.8878,5.3668 6.3121,6.3121 2.0121,22.6842 6.6121,38.0059 4.6,15.3218 22.4229,131.2911 18.4923,150.0347 0,0 -2.1134,15.7976 3.9779,28.4371 2.6931,15.3368 7.0638,82.1619 5.3597,88.0372 -1.7042,5.8755 3.834,11.4138 3.834,11.4138 0,0 6.1136,-2.9048 6.1136,-14.1914 0,-11.2867 -14.7137,-261.0466 -3.911,-270.7197 0,0 10.1158,-12.895 18.9054,-12.895 8.7897,0 24.7629,-16.0286 32.1096,-20.0052 0,0 4.1583,-5.0769 -6.9741,-10.9508 -11.1323,-5.8739 -31.7252,-18.7007 -41.3689,-59.7083 -11.6437,-20.0076 -24.2794,-66.0872 -42.3224,-107.9173 -18.043,-41.8301 -13.7299,-36.4236 -13.7299,-36.4236 0,0 -95.3713,-114.5455 -124.6481,-153.1061 0,0 -16.1036,-21.2645 0,-20.3709 16.1036,0.8935 144.0354,21.6741 160.3262,34.7954 0,0 53.0165,4.6835 81.2068,39.6826 32.7279,29.0347 57.3043,56.3031 68.4141,60.4844 0,0 8.8715,5.9367 12.4072,14.309 3.5357,8.3723 10.1061,8.5808 13.7668,3.4523 3.6608,-5.1286 12.3208,-17.4926 16.6698,-17.4926 4.3491,0 116.9965,-105.4218 123.0477,-105.4218 6.0514,0 12.3269,-9.6339 14.3142,6.1003 1.9872,15.7341 -14.4666,140.5987 -25.387,151.5191 -1.9001,9.1588 -23.234,109.7161 -34.1799,133.0906 -10.9459,23.3745 -15.9235,16.6872 -38.3097,46.5308 0,0 -18.4618,35.0239 -29.6478,46.21 -11.186,11.1861 -20.6222,22.6746 -22.309,29.0284 -1.6869,6.3539 -13.3855,144.1783 -8.6575,181.5168 0,39.3384 0.7406,137.007 -2.4326,150.9333 -3.1732,13.9263 -6.3809,32.405 -6.3809,48.0717 0,0 1.8606,13.4637 -7.7947,14.3201 -9.6553,0.8564 -501.6557,2.5487 -501.6557,2.5487 z"
       id="path3" />
    <path
       style="fill:#ff0000;display:none"
       d="m -51.9274,1211.4308 c 0,0 -19.0836,-0.022 -0.6989,-132.6935 C -34.2417,946.066 -24.045,899.1052 -5.3234,791.0001 1.7346,774.8563 -73.7096,698.777 -134.2387,593.2597 -195.9902,485.6117 -277.9101,357.4473 -322.9681,312.8139 c 0,0 174.6051,-335.4541 237.819,-349.6864 0,0 301.3812,108.86 337.0663,144.5451 0,0 -1.6885,91.6752 -28.6427,104.2204 -26.9543,12.5452 -108.8787,44.596 -154.5442,34.6042 0,0 -66.5129,-72.4035 -90.3392,-83.5027 0,0 -6.2708,4.3005 1.4514,23.8679 7.7223,19.5674 -10.4012,69.4088 -39.2782,89.5321 0,0 -21.8448,3.1385 -20.069,6.7997 1.7759,3.6612 5.1862,8.7151 30.2112,12.0414 25.0249,3.3263 41.4226,16.8926 51.1404,21.7706 9.7179,4.8781 39.9987,16.8593 64.2749,23.7075 0,0 237.1202,313.2578 237.1202,342.053 0,0 -71.9669,66.2099 -101.9054,69.0026 0,0 -4.9395,0.036 0,4.9752 4.9395,4.9394 64.5757,-0.9453 70.8878,5.3668 6.3121,6.3121 2.0121,22.6842 6.6121,38.0059 4.6,15.3218 22.4229,131.2911 18.4923,150.0347 0,0 -2.1134,15.7976 3.9779,28.4371 2.6931,15.3368 7.0638,82.1619 5.3597,88.0372 -1.7042,5.8755 3.834,11.4138 3.834,11.4138 0,0 6.1136,-2.9048 6.1136,-14.1914 0,-11.2867 -14.7137,-261.0466 -3.911,-270.7197 0,0 10.1158,-12.895 18.9054,-12.895 8.7897,0 24.7629,-16.0286 32.1096,-20.0052 0,0 4.1583,-5.0769 -6.9741,-10.9508 -11.1323,-5.8739 -31.7252,-18.7007 -41.3689,-59.7083 -11.6437,-20.0076 -24.2794,-66.0872 -42.3224,-107.9173 -18.043,-41.8301 -13.7299,-36.4236 -13.7299,-36.4236 0,0 -95.3713,-114.5455 -124.6481,-153.1061 0,0 -16.1036,-21.2645 0,-20.3709 16.1036,0.8935 144.0354,21.6741 160.3262,34.7954 0,0 53.0165,4.6835 81.2068,39.6826 32.7279,29.0347 57.3043,56.3031 68.4141,60.4844 0,0 8.8715,5.9367 12.4072,14.309 3.5357,8.3723 10.1061,8.5808 13.7668,3.4523 3.6608,-5.1286 12.3208,-17.4926 16.6698,-17.4926 4.3491,0 116.9965,-105.4218 123.0477,-105.4218 6.0514,0 12.3269,-9.6339 14.3142,6.1003 1.9872,15.7341 -14.4666,140.5987 -25.387,151.5191 -1.9001,9.1588 -23.234,109.7161 -34.1799,133.0906 -10.9459,23.3745 -15.9235,16.6872 -38.3097,46.5308 0,0 -18.4618,35.0239 -29.6478,46.21 -11.186,11.1861 -20.6222,22.6746 -22.309,29.0284 -1.6869,6.3539 -13.3855,144.1783 -8.6575,181.5168 0,39.3384 0.7406,137.007 -2.4326,150.9333 -3.1732,13.9263 -6.3809,32.405 -6.3809,48.0717 0,0 1.8606,13.4637 -7.7947,14.3201 -9.6553,0.8564 -501.6557,2.5487 -501.6557,2.5487 z"
       id="path3451"
       inkscape:connector-curvature="0" />
    <g
       transform="translate(-1277.9807,-322.38862)"
       id="g3462">
      <path
         style="fill:#ff0000;display:none"
         inkscape:connector-curvature="0"
         display="none"
         d="m 1044.0077,1522.5356 c 0,0 -19.0836,-0.022 -0.6989,-132.6935 18.3846,-132.6713 28.5813,-179.6321 47.3029,-287.7372 7.058,-16.1438 -68.3862,-92.2231 -128.9153,-197.7404 C 899.9449,796.7165 818.025,668.5521 772.967,623.9187 c 0,0 174.6051,-335.4541 237.819,-349.6864 0,0 301.3812,108.86 337.0663,144.5451 0,0 -1.6885,91.6752 -28.6427,104.2204 -26.9543,12.5452 -108.8787,44.596 -154.5442,34.6042 0,0 -66.5129,-72.4035 -90.3392,-83.5027 0,0 -6.2708,4.3005 1.4514,23.8679 7.7223,19.5674 -10.4012,69.4088 -39.2782,89.5321 0,0 -21.8448,3.1385 -20.069,6.7997 1.7759,3.6612 5.1862,8.7151 30.2112,12.0414 25.0249,3.3263 41.4226,16.8926 51.1404,21.7706 9.7179,4.8781 39.9987,16.8593 64.2749,23.7075 0,0 237.1202,313.2578 237.1202,342.053 0,0 -71.9669,66.2099 -101.9054,69.0026 0,0 -4.9395,0.036 0,4.9752 4.9395,4.9394 64.5757,-0.9453 70.8878,5.3668 6.3121,6.3121 2.0121,22.6842 6.6121,38.0059 4.6,15.3218 22.4229,131.2911 18.4923,150.0347 0,0 -2.1134,15.7976 3.9779,28.4371 2.6931,15.3368 7.0638,82.1619 5.3597,88.0372 -1.7042,5.8755 3.834,11.4138 3.834,11.4138 0,0 6.1136,-2.9048 6.1136,-14.1914 0,-11.2867 -14.7137,-261.0466 -3.911,-270.7197 0,0 10.1158,-12.895 18.9054,-12.895 8.7897,0 24.7629,-16.0286 32.1096,-20.0052 0,0 4.1583,-5.0769 -6.9741,-10.9508 -11.1323,-5.8739 -31.7252,-18.7007 -41.3689,-59.7083 -11.6437,-20.0076 -24.2794,-66.0872 -42.3224,-107.9173 -18.043,-41.8301 -13.7299,-36.4236 -13.7299,-36.4236 0,0 -95.3713,-114.5455 -124.6481,-153.1061 0,0 -16.1036,-21.2645 0,-20.3709 16.1036,0.8935 144.0354,21.6741 160.3262,34.7954 0,0 53.0165,4.6835 81.2068,39.6826 32.7279,29.0347 57.3043,56.3031 68.4141,60.4844 0,0 8.8715,5.9367 12.4072,14.309 3.5357,8.3723 10.1061,8.5808 13.7668,3.4523 3.6608,-5.1286 12.3208,-17.4926 16.6698,-17.4926 4.3491,0 116.9965,-105.4218 123.0477,-105.4218 6.0514,0 12.3269,-9.6339 14.3142,6.1003 1.9872,15.7341 -14.4666,140.5987 -25.387,151.5191 -1.9001,9.1588 -23.234,109.7161 -34.1799,133.0906 -10.9459,23.3745 -15.9235,16.6872 -38.3097,46.5308 0,0 -18.4618,35.0239 -29.6478,46.21 -11.186,11.1861 -20.6222,22.6746 -22.309,29.0284 -1.6869,6.3539 -13.3855,144.1783 -8.6575,181.5168 0,39.3384 0.7406,137.007 -2.4326,150.9333 -3.1732,13.9263 -6.3809,32.405 -6.3809,48.0717 0,0 1.8606,13.4637 -7.7947,14.3201 -9.6553,0.8564 -501.6557,2.5487 -501.6557,2.5487 z"
         id="path3464" />
      <g
         id="g3466"
         style="fill:#00ff00;stroke:none" />
    </g>
    <path
       style="fill:#000000;stroke:none"
       d="m 157.64982,337.29215 c -10.38914,0.20161 -20.53815,5.13559 -27.0625,14.21875 -10.9867,15.298 -7.48465,36.63837 7.8125,47.625 0.60573,0.43481 1.22028,0.76658 1.84375,1.15625 13.97851,-10.99485 36.77445,-42.75038 39.875,-55.03125 -0.63766,-0.53224 -1.25213,-1.07035 -1.9375,-1.5625 -6.21482,-4.46334 -13.42289,-6.54419 -20.53125,-6.40625 z m 25.375,10.65625 c -3.8119,16.9018 -24.38342,41.04055 -38.03125,54.84375 7.1786,3.04812 15.05085,3.48655 22.3125,1.5 0.0153,-0.0161 0.0468,-0.0152 0.0625,-0.0313 4.60644,-4.67889 9.71211,-10.82123 13.78125,-16.5 4.09682,-5.71793 8.30859,-12.37313 11.15625,-18.34375 -0.45952,-7.8644 -3.63671,-15.52576 -9.28125,-21.46875 z m 40.1875,21.71875 c -2.0787,0.0519 -4.1118,1.09646 -5.3125,2.96875 l -10.21875,15.9375 c -1.0304,1.6068 -4.44415,4.53504 -3.96875,6.25 0.4109,1.48232 3.82995,3.20313 5.21875,4.09375 l 13.15625,5.65625 c 2.9956,1.92099 5.67275,1.05814 7.59375,-1.9375 l 10.1875,-15.90625 c 0.8565,-1.33574 2.1964,-3.22073 2,-4.6875 -0.2439,-1.82275 -2.2776,-3.18557 -3.9375,-4.25 l -11.09375,-7.125 c -1.1234,-0.72038 -2.3777,-1.03114 -3.625,-1 z m -27.96875,1.875 c -0.008,0.0164 -0.0233,0.0452 -0.0313,0.0625 l 0.0625,0.125 c -1.12356,2.16022 -2.35366,4.37088 -3.65625,6.59375 -0.0176,0.0329 -0.0439,0.061 -0.0625,0.0937 -2.27332,3.84235 -4.79353,7.69478 -7.59375,11.59375 -2.75804,3.84021 -5.62808,7.44601 -8.5,10.78125 -0.0151,0.009 -0.0156,0.0222 -0.0313,0.0313 -1.69441,1.95472 -3.35706,3.84842 -5.0625,5.625 3.05175,1.85868 6.50605,3.96275 9.875,6.03125 2.69321,-3.88088 5.51569,-7.65338 8.46875,-11.28125 3.1016,-4.07709 8.25322,-7.98953 13.46875,-4.9375 -2.13989,-4.90642 4.63174,-7.90937 5.9375,-12.09375 0.35542,-0.3909 0.70661,-0.80942 1.03125,-1.25 -4.97589,-3.99786 -9.66041,-7.83781 -13.90625,-11.375 z m 53.46875,10.78125 c -2.1871,0.017 -4.3004,1.12128 -5.5,3.125 l -9.5625,15.96875 c -0.9707,1.62133 -3.2588,4.25091 -2.75,5.9375 0.4494,1.48963 3.53685,2.0802 4.96875,2.9375 2.2629,1.16813 10.73195,3.43797 10.84375,6.46875 0.1263,3.42537 -3.22415,9.71647 -0.84375,13.375 1.1972,0.71679 4.88305,-4.12156 7.28125,-7.65625 1.0313,-1.52008 2.20755,-2.45598 2.59375,-2.9375 0.9123,-1.13739 1.91575,-1.94007 2.71875,-3.28125 l 9.5625,-15.9375 c 1.828,-3.0533 0.83455,-7.04701 -2.21875,-8.875 l -13.71875,-8.21875 c -1.0496,-0.62837 -2.2293,-0.91514 -3.375,-0.90625 z m -50.75,14.875 c -0.15143,0.008 -0.31393,0.009 -0.46875,0.0313 -1.47272,0.45237 -2.77554,1.15068 -3.96875,2 -0.0769,0.0649 -0.17221,0.11987 -0.25,0.1875 -1.79848,1.56356 -3.8325,3.82714 -5.96875,6.5625 -2.00209,2.87071 -3.80381,5.92382 -5.9375,8.375 -8.31476,12.53589 -16.25,27.82356 -16.25,30.9375 0,5.51882 17.46765,23.80544 25.96875,38.625 8.3328,14.5262 18.7216,24.99629 17.75,27.21875 -2.5774,14.88246 -3.969,21.32937 -6.5,39.59375 -2.5309,18.26444 0.0937,18.28125 0.0937,18.28125 0,0 67.7332,-0.22585 69.0625,-0.34375 1.3292,-0.1179 1.0625,-2 1.0625,-2 0,-2.15679 0.4382,-4.67657 0.875,-6.59375 0.4368,-1.9172 0.34375,-15.36566 0.34375,-20.78125 -0.6509,-5.14025 0.9553,-24.12528 1.1875,-25 0.2323,-0.87472 1.55385,-2.46006 3.09375,-4 1.54,-1.53993 4.0625,-6.34375 4.0625,-6.34375 3.0818,-4.10847 3.77435,-3.18836 5.28125,-6.40625 1.03581,-2.21206 2.5306,-9.35086 3.59375,-14.0625 -5.24529,-3.25701 -10.42521,-6.6741 -15.71875,-9.8125 l -0.875,0.78125 c -0.504,0.70604 -1.41945,0.6526 -1.90625,-0.5 -0.4867,-1.1526 -1.71875,-1.96875 -1.71875,-1.96875 -1.5294,-0.57564 -4.90075,-4.3154 -9.40625,-8.3125 -3.8809,-4.8182 -8.6393,-4.45753 -11.1875,-5.46875 -2.5482,-1.0112 -19.8456,-4.65823 -22.0625,-4.78125 -2.2169,-0.123 0,2.78125 0,2.78125 4.0212,5.29636 17.09645,20.99068 17.15625,21.0625 -0.08,-0.0637 -0.26715,-0.007 1.90625,5.03125 2.4839,5.7586 4.2096,12.12062 5.8125,14.875 1.3276,5.64538 4.1549,7.41013 5.6875,8.21875 1.5325,0.80864 0.96875,1.5 0.96875,1.5 -1.0114,0.54748 -3.19625,2.75 -4.40625,2.75 -1.21,0 -2.625,1.78125 -2.625,1.78125 -1.4872,1.33167 0.5625,35.72744 0.5625,37.28125 0,1.55378 -0.84375,1.9375 -0.84375,1.9375 0,0 -0.76585,-0.75364 -0.53125,-1.5625 0.2346,-0.80886 -0.3793,-10.01365 -0.75,-12.125 -0.83855,-1.74005 -0.53125,-3.90625 -0.53125,-3.90625 0.5411,-2.58034 -1.9293,-18.54695 -2.5625,-20.65625 -0.6333,-2.10929 -0.0375,-4.38104 -0.90625,-5.25 -0.8689,-0.86897 -9.07,-0.0388 -9.75,-0.71875 -0.68,-0.67998 0,-0.6875 0,-0.6875 4.1216,-0.38445 13.4681,-7.32396 13.5,-9.40625 0.032,-2.08229 -29.3869,-45.57974 -32.125,-47.1875 -2.738,-1.60777 -7.50585,-2.57846 -8.84375,-3.25 -1.3378,-0.67155 -3.58615,-2.54209 -7.03125,-3 -3.4451,-0.45792 -3.91175,-1.15223 -4.15625,-1.65625 -0.2445,-0.50403 2.75,-0.9375 2.75,-0.9375 3.9754,-2.7703 6.46935,-9.64998 5.40625,-12.34375 -1.0631,-2.69378 -0.1875,-3.28125 -0.1875,-3.28125 3.2801,1.52799 12.4375,11.5 12.4375,11.5 6.2866,1.37555 17.5393,-3.05419 21.25,-4.78125 3.7107,-1.72705 4.60115,-12.17967 3.96875,-14.34375 -0.2631,-0.90034 -7.27809,-4.33557 -15.75,-8.09375 -0.31133,-0.0678 -0.6368,-0.17917 -0.90625,-0.375 -7.51051,-3.31047 -15.9325,-6.77709 -22.125,-9.03125 0.21098,0.42886 0.45237,0.84528 0.65625,1.25 -1.50185,-0.64224 -2.91647,-1.74478 -4.40625,-2.5625 -0.046,-0.015 -0.0796,-0.0165 -0.125,-0.0313 -1.5937,-0.51796 -2.8393,-0.86507 -3.65625,-1 z m 73.0625,7.5 c -1.8667,0.0408 -3.6965,0.86681 -4.9375,2.4375 l -24.5625,35.15625 c -2.2062,2.79234 -1.7299,6.88761 1.0625,9.09375 l 11.5625,5.53125 c 2.7923,2.20612 6.88755,1.72983 9.09375,-1.0625 l 23.75,-30.0625 c 2.2061,-2.79235 1.7299,-6.88763 -1.0625,-9.09375 l -10.75,-10.625 c -1.2216,-0.96519 -2.70425,-1.40673 -4.15625,-1.375 z m -42.21875,1.78125 c -0.96483,0.14458 0.28385,0.90069 0,0 z m 63.28125,19.28125 c -0.5524,0.0164 -1.0914,0.19935 -1.5,0.59375 l -26.4375,31.6875 c -1.6343,1.57759 -1.82955,4.08796 -0.40625,5.5625 l 7.21875,7.46875 c 1.4234,1.47456 3.9282,1.39009 5.5625,-0.1875 l 28.9375,-27.9375 c 1.6343,-1.5776 1.7983,-4.08795 0.375,-5.5625 l -8.96875,-9.1875 c -1.0675,-1.10591 -3.12385,-2.48675 -4.78125,-2.4375 z m -49.125,8.125 -15.375,4.25 c -2.5468,0.68833 -7.98245,2.3625 -9.53125,-0.21875 -1.5487,-2.58125 -1.58855,-3.29107 -3.53125,-3.1875 -3.1969,0.63065 -2.3702,3.38197 -1.625,4.25 1.5067,1.75494 11.74525,8.63801 17.15625,10.53125 0.6636,0.23216 1.2347,-0.17317 2.25,-1.6875 1.0153,-1.51433 9.92715,-11.50013 10.71875,-12.6875 0.6195,-1.22179 -0.0625,-1.25 -0.0625,-1.25 z m 55.25,18.9375 c -4.18511,3.91971 -8.50701,7.764 -12.4375,11.875 -2.64332,1.89538 -5.24637,5.8856 -8.34375,8 9.19672,5.67204 17.91792,11.04155 25.4375,15.59375 2.05932,1.47889 6.97666,-1.82881 10.9375,-7.34375 3.96079,-5.51473 5.49685,-11.14591 3.4375,-12.625 -5.67095,-4.74196 -12.11589,-9.97803 -19.03125,-15.5 z m 21.375,21.59375 c -1.44545,5.48409 -5.25828,10.55101 -9.96875,13.875 l 4.5625,3.0625 c 2.05211,1.39142 4.83525,0.87986 6.25,-1.15625 l 4.65625,-6.6875 c 1.41516,-2.03581 0.92714,-4.76486 -1.125,-6.15625 l -4.375,-2.9375 z"
       id="path3627"
       inkscape:connector-curvature="0" />
  </g>
</svg>
